<svg xmlns="http://www.w3.org/2000/svg" viewBox="0 0 800 500" width="800" height="500">
  <defs>
    <linearGradient id="g6" x1="0" y1="0" x2="1" y2="1">
      <stop offset="0%" stop-color="#fffbeb"/>
      <stop offset="100%" stop-color="#fef3c7"/>
    </linearGradient>
  </defs>
  <rect width="800" height="500" fill="url(#g6)"/>
  <circle cx="640" cy="130" r="55" fill="#d97706" opacity="0.85"/>
  <g stroke="#d97706" stroke-width="3" opacity="0.6">
    <line x1="640" y1="55" x2="640" y2="35"/>
    <line x1="640" y1="205" x2="640" y2="225"/>
    <line x1="565" y1="130" x2="545" y2="130"/>
    <line x1="715" y1="130" x2="735" y2="130"/>
    <line x1="590" y1="80" x2="576" y2="66"/>
    <line x1="690" y1="180" x2="704" y2="194"/>
    <line x1="690" y1="80" x2="704" y2="66"/>
    <line x1="590" y1="180" x2="576" y2="194"/>
  </g>
  <g stroke="#0f172a" stroke-width="1.5" fill="none" opacity="0.5">
    <rect x="150" y="200" width="180" height="120" rx="8"/>
    <line x1="150" y1="240" x2="330" y2="240"/>
    <line x1="150" y1="280" x2="330" y2="280"/>
    <line x1="190" y1="200" x2="190" y2="320"/>
    <line x1="240" y1="200" x2="240" y2="320"/>
    <line x1="290" y1="200" x2="290" y2="320"/>
  </g>
  <g fill="#1e40af" opacity="0.6">
    <path d="M 400 380 Q 420 360 440 380 Q 460 400 480 380 Q 500 360 520 380 L 520 420 L 400 420 Z"/>
    <path d="M 420 385 Q 440 365 460 385 Q 480 405 500 385" fill="none" stroke="#1e40af" stroke-width="2"/>
  </g>
  <text x="400" y="440" font-family="Georgia,serif" font-size="24" font-weight="700" fill="#0f172a" text-anchor="middle">Solar Seaweed Dryer</text>
  <text x="400" y="465" font-family="system-ui,sans-serif" font-size="12" fill="#475569" text-anchor="middle">Ganti file: images/project-6.jpg</text>
</svg>
