<svg xmlns="http://www.w3.org/2000/svg" viewBox="0 0 800 500" width="800" height="500">
  <defs>
    <linearGradient id="g7" x1="0" y1="0" x2="1" y2="1">
      <stop offset="0%" stop-color="#ecfeff"/>
      <stop offset="100%" stop-color="#cffafe"/>
    </linearGradient>
  </defs>
  <rect width="800" height="500" fill="url(#g7)"/>
  <g stroke="#0891b2" stroke-width="1.5" fill="none" opacity="0.5">
    <path d="M 100 380 L 200 320 L 300 340 L 400 260 L 500 280 L 600 220 L 700 240"/>
    <path d="M 100 400 L 200 340 L 300 360 L 400 280 L 500 300 L 600 240 L 700 260"/>
    <path d="M 100 420 L 200 360 L 300 380 L 400 300 L 500 320 L 600 260 L 700 280"/>
  </g>
  <path d="M 100 380 L 200 320 L 300 340 L 400 260 L 500 280 L 600 220 L 700 240 L 700 450 L 100 450 Z" fill="#0891b2" opacity="0.15"/>
  <path d="M 400 260 L 500 280 L 600 220" stroke="#ea580c" stroke-width="3" fill="none" opacity="0.7"/>
  <circle cx="400" cy="260" r="6" fill="#ea580c"/>
  <circle cx="500" cy="280" r="6" fill="#ea580c"/>
  <circle cx="600" cy="220" r="6" fill="#ea580c"/>
  <text x="400" y="150" font-family="Georgia,serif" font-size="24" font-weight="700" fill="#0f172a" text-anchor="middle">Batu Tara DEM</text>
  <text x="400" y="180" font-family="system-ui,sans-serif" font-size="12" fill="#475569" text-anchor="middle">Ganti file: images/project-7.jpg</text>
</svg>
